<mxfile host="app.diagrams.net" modified="2023-11-05T02:17:37.666Z" agent="Mozilla/5.0 (Windows NT 10.0; Win64; x64) AppleWebKit/537.36 (KHTML, like Gecko) Chrome/119.0.0.0 Safari/537.36 Edg/119.0.0.0" etag="xr_HdE1lUwzTCy154esZ" version="22.0.8" type="github">
  <diagram name="第 1 页" id="IJGNeAdM7Tea42_YAxJk">
    <mxGraphModel dx="929" dy="620" grid="1" gridSize="10" guides="1" tooltips="1" connect="1" arrows="1" fold="1" page="1" pageScale="1" pageWidth="827" pageHeight="1169" math="0" shadow="0">
      <root>
        <mxCell id="0" />
        <mxCell id="1" parent="0" />
        <mxCell id="xBmGIYDeRm3E4qfXy4Qc-1" value="" style="rounded=0;whiteSpace=wrap;html=1;" vertex="1" parent="1">
          <mxGeometry x="310" y="170" width="270" height="250" as="geometry" />
        </mxCell>
        <mxCell id="xBmGIYDeRm3E4qfXy4Qc-2" value="项目成员的工作日志发布及管理" style="text;html=1;strokeColor=none;fillColor=none;align=center;verticalAlign=middle;whiteSpace=wrap;rounded=0;" vertex="1" parent="1">
          <mxGeometry x="360" y="190" width="190" height="30" as="geometry" />
        </mxCell>
        <mxCell id="xBmGIYDeRm3E4qfXy4Qc-3" value="编写当日情况与第二天的规划信息" style="ellipse;whiteSpace=wrap;html=1;" vertex="1" parent="1">
          <mxGeometry x="340" y="230" width="210" height="50" as="geometry" />
        </mxCell>
        <mxCell id="xBmGIYDeRm3E4qfXy4Qc-4" value="提交当日工作情况与第二天的计划信息" style="ellipse;whiteSpace=wrap;html=1;" vertex="1" parent="1">
          <mxGeometry x="330" y="290" width="220" height="50" as="geometry" />
        </mxCell>
        <mxCell id="xBmGIYDeRm3E4qfXy4Qc-5" value="查看项目成员提交的信息" style="ellipse;whiteSpace=wrap;html=1;" vertex="1" parent="1">
          <mxGeometry x="345" y="350" width="200" height="50" as="geometry" />
        </mxCell>
        <mxCell id="xBmGIYDeRm3E4qfXy4Qc-6" value="Actor" style="shape=umlActor;verticalLabelPosition=bottom;verticalAlign=top;html=1;outlineConnect=0;fontColor=none;noLabel=1;" vertex="1" parent="1">
          <mxGeometry x="240" y="265" width="30" height="60" as="geometry" />
        </mxCell>
        <mxCell id="xBmGIYDeRm3E4qfXy4Qc-7" value="Actor" style="shape=umlActor;verticalLabelPosition=bottom;verticalAlign=top;html=1;outlineConnect=0;fontColor=none;noLabel=1;" vertex="1" parent="1">
          <mxGeometry x="640" y="250" width="30" height="60" as="geometry" />
        </mxCell>
        <mxCell id="xBmGIYDeRm3E4qfXy4Qc-8" value="项目管理员" style="text;html=1;strokeColor=none;fillColor=none;align=center;verticalAlign=middle;whiteSpace=wrap;rounded=0;" vertex="1" parent="1">
          <mxGeometry x="210" y="330" width="75" height="30" as="geometry" />
        </mxCell>
        <mxCell id="xBmGIYDeRm3E4qfXy4Qc-9" value="项目成员" style="text;html=1;strokeColor=none;fillColor=none;align=center;verticalAlign=middle;whiteSpace=wrap;rounded=0;" vertex="1" parent="1">
          <mxGeometry x="625" y="320" width="60" height="30" as="geometry" />
        </mxCell>
        <mxCell id="xBmGIYDeRm3E4qfXy4Qc-10" value="" style="endArrow=classic;html=1;rounded=0;exitX=1;exitY=0.3333333333333333;exitDx=0;exitDy=0;exitPerimeter=0;entryX=0;entryY=0.5;entryDx=0;entryDy=0;" edge="1" parent="1" source="xBmGIYDeRm3E4qfXy4Qc-6" target="xBmGIYDeRm3E4qfXy4Qc-5">
          <mxGeometry width="50" height="50" relative="1" as="geometry">
            <mxPoint x="280" y="290" as="sourcePoint" />
            <mxPoint x="340" y="250" as="targetPoint" />
          </mxGeometry>
        </mxCell>
        <mxCell id="xBmGIYDeRm3E4qfXy4Qc-11" value="" style="endArrow=classic;html=1;rounded=0;entryX=1;entryY=0.5;entryDx=0;entryDy=0;exitX=0;exitY=0.3333333333333333;exitDx=0;exitDy=0;exitPerimeter=0;" edge="1" parent="1" source="xBmGIYDeRm3E4qfXy4Qc-7" target="xBmGIYDeRm3E4qfXy4Qc-3">
          <mxGeometry width="50" height="50" relative="1" as="geometry">
            <mxPoint x="390" y="350" as="sourcePoint" />
            <mxPoint x="440" y="300" as="targetPoint" />
          </mxGeometry>
        </mxCell>
        <mxCell id="xBmGIYDeRm3E4qfXy4Qc-12" value="" style="endArrow=classic;html=1;rounded=0;entryX=1;entryY=0.5;entryDx=0;entryDy=0;" edge="1" parent="1" target="xBmGIYDeRm3E4qfXy4Qc-4">
          <mxGeometry width="50" height="50" relative="1" as="geometry">
            <mxPoint x="640" y="270" as="sourcePoint" />
            <mxPoint x="720" y="380" as="targetPoint" />
          </mxGeometry>
        </mxCell>
      </root>
    </mxGraphModel>
  </diagram>
</mxfile>
